<?xml version="1.0" encoding="UTF-8" standalone="no"?>
<!-- Created with Inkscape (http://www.inkscape.org/) -->

<svg
   width="86.570656mm"
   height="33.000179mm"
   viewBox="0 0 86.570655 33.000179"
   version="1.1"
   id="svg1"
   xmlns="http://www.w3.org/2000/svg"
   xmlns:svg="http://www.w3.org/2000/svg">
  <defs
     id="defs1" />
  <g
     id="layer1"
     transform="translate(-64.347665,-178.47845)">
    <g
       id="path3-5"
       transform="translate(0,6.4822917)">
      <path
         id="path12"
         style="fill:#ffffff;stroke:#000000;stroke-width:2;stroke-dasharray:none;stroke-opacity:1;paint-order:markers stroke fill"
         d="m 78.26189,172.99616 -12.500012,12.50001 4.499984,4.49999 h 8.241874 l 3.379122,-3.37912 3.378605,3.37912 h 8.242391 l 3.379122,-3.37912 1.878955,1.87895 -6.939628,6.93963 -4.060734,4.06022 4.499983,4.5005 h 11.242208 l -4.499984,-4.5005 9.939444,-9.93738 1.53117,-1.53117 1.40819,-1.41025 3.37912,3.37912 h 8.24239 l 6.87865,-6.87917 6.87917,6.87917 h 11.2422 l -12.50001,-12.50001 4.50154,-4.49999 h -2.12494 -9.11882 -3.75791 -2.24224 -8.99997 l -8.00003,8.00003 h -3.75791 l 8.00003,-8.00003 H 99.261642 l -8.000029,8.00003 h -3.75791 l 8.000029,-8.00003 z m 41.62072,5.62291 1.87895,1.87689 -0.49971,0.50023 h -3.75584 z" />
      <path
         style="paint-order:markers stroke fill"
         d="m 78.883558,174.49684 -11.000362,10.99985 2.999817,3.00033 h 7.000089 l 14.000179,-14.00018 z m 20.999752,0 -8.000029,8.00003 h -6.00015 l -2.999817,2.99982 2.999817,3.00033 h 7.000089 l 14.00018,-14.00018 z m 15.00012,0 -8.00003,8.00003 h -6.00015 l -2.999818,2.99982 2.999818,3.00033 -8.00003,8.00003 -2.999817,2.99982 2.999817,2.99981 h 7.00009 l -2.999817,-2.99981 10.999847,-10.99985 1.53117,-1.53117 12.46901,-12.46901 z m 8.99997,0 -2.99982,3.00034 1.99988,1.99987 4.99969,-5.00021 z m 6.00015,0 -6.00015,6.00015 -1.99988,1.99988 h -6.00015 l -2.99982,2.99982 2.99982,3.00033 h 7.00009 l 7.4998,-7.50032 3.50004,-3.50004 3.00034,-2.99982 h -6.00015 z m 5.00021,3.99976 -3.50056,3.50056 6.50038,6.49986 h 7.00009 z"
         id="path13" />
    </g>
    <g
       id="path3-09"
       style="fill:#000000;fill-opacity:1" />
  </g>
</svg>
